<mxfile host="app.diagrams.net" modified="2024-05-19T19:48:12.476Z" agent="Mozilla/5.0 (X11; Linux x86_64) AppleWebKit/537.36 (KHTML, like Gecko) Chrome/124.0.0.0 Safari/537.36" version="24.4.4" etag="gEQI5PtF9HoNkI_7K6Cj" type="github">
  <diagram name="Page-1" id="IMug41t355EQufv1KKEb">
    <mxGraphModel>
      <root>
        <mxCell id="0" />
        <mxCell id="1" parent="0" />
      </root>
    </mxGraphModel>
  </diagram>
</mxfile>
